<svg xmlns="http://www.w3.org/2000/svg" width="16" height="18" viewBox="0 0 16 18">
  <path id="lock" d="M16.333,9.214A2.62,2.62,0,0,1,19,11.786v5.143A2.62,2.62,0,0,1,16.333,19.5H5.667A2.62,2.62,0,0,1,3,16.929V11.786A2.62,2.62,0,0,1,5.667,9.214V6.643A5.241,5.241,0,0,1,11,1.5a5.241,5.241,0,0,1,5.333,5.143ZM11,3.214a3.494,3.494,0,0,1,3.556,3.429V9.214H7.444V6.643A3.494,3.494,0,0,1,11,3.214Zm5.333,7.714H5.667a.873.873,0,0,0-.889.857v5.143a.873.873,0,0,0,.889.857H16.333a.873.873,0,0,0,.889-.857V11.786A.873.873,0,0,0,16.333,10.929Z" transform="translate(-3 -1.5)" fill-rule="evenodd"/>
</svg>
